<svg width="200" height="433" viewBox="0 0 200 433" fill="none" xmlns="http://www.w3.org/2000/svg">
<g clip-path="url(#clip0_17_48)">
<path d="M114.541 12.639C111.064 12.639 108.236 9.80449 108.236 6.31949C108.236 2.8345 111.064 0 114.541 0C118.018 0 120.846 2.8345 120.846 6.31949C120.846 9.80449 118.018 12.639 114.541 12.639Z" fill="white"/>
<path d="M114.541 237.387C111.064 237.387 108.236 234.553 108.236 231.068C108.236 227.583 111.064 224.748 114.541 224.748C118.018 224.748 120.846 227.583 120.846 231.068C120.846 234.553 118.018 237.387 114.541 237.387Z" fill="white"/>
<path d="M88.473 35.9244C84.938 35.9244 82.061 33.0418 82.061 29.4977C82.061 25.9535 84.938 23.0709 88.473 23.0709C92.009 23.0709 94.885 25.9535 94.885 29.4977C94.885 33.0418 92.009 35.9244 88.473 35.9244Z" fill="white"/>
<path d="M88.473 260.673C84.938 260.673 82.061 257.79 82.061 254.246C82.061 250.702 84.938 247.819 88.473 247.819C92.009 247.819 94.885 250.702 94.885 254.246C94.885 257.79 92.009 260.673 88.473 260.673Z" fill="white"/>
<path d="M105.911 72.4602C101.235 72.4602 97.4299 68.6474 97.4299 63.9597C97.4299 59.2729 101.235 55.4602 105.911 55.4602C110.587 55.4602 114.392 59.2729 114.392 63.9597C114.392 68.6474 110.587 72.4602 105.911 72.4602Z" fill="white"/>
<path d="M105.911 297.209C101.235 297.209 97.4299 293.396 97.4299 288.708C97.4299 284.021 101.235 280.209 105.911 280.209C110.587 280.209 114.392 284.021 114.392 288.708C114.392 293.396 110.587 297.209 105.911 297.209Z" fill="white"/>
<path d="M92.786 130.959C86.802 130.959 81.933 126.079 81.933 120.08C81.933 114.082 86.802 109.201 92.786 109.201C98.77 109.201 103.64 114.082 103.64 120.08C103.64 126.079 98.77 130.959 92.786 130.959Z" fill="white"/>
<path d="M114.541 171.23C110.181 171.23 106.634 167.674 106.634 163.305C106.634 158.935 110.181 155.378 114.541 155.378C118.901 155.378 122.448 158.935 122.448 163.305C122.448 167.674 118.901 171.23 114.541 171.23Z" fill="white"/>
<path d="M79.661 208.444C73.783 208.444 69 203.651 69 197.759C69 191.867 73.783 187.074 79.661 187.074C85.538 187.074 90.321 191.867 90.321 197.759C90.321 203.651 85.538 208.444 79.661 208.444Z" fill="white"/>
<path fill-rule="evenodd" clip-rule="evenodd" d="M15 36.2335H0V418.234V433.234H15H185H200V418.234V36.2335H185V303.201C173.798 298.487 156.254 295.108 148 296.234C142.898 296.929 137.367 301.074 131.025 305.826C121.354 313.073 109.796 321.734 95 321.734C81.45 321.734 70.5 313.475 60.712 306.093C52.8021 300.127 45.651 294.734 38.5 294.734C29.2299 294.734 20.6242 300.678 15 306.109V36.2335ZM92.786 355.708C86.802 355.708 81.933 350.828 81.933 344.829C81.933 338.83 86.802 333.95 92.786 333.95C98.77 333.95 103.64 338.83 103.64 344.829C103.64 350.828 98.77 355.708 92.786 355.708ZM106.634 388.053C106.634 392.422 110.181 395.978 114.541 395.978C118.901 395.978 122.448 392.422 122.448 388.053C122.448 383.683 118.901 380.127 114.541 380.127C110.181 380.127 106.634 383.683 106.634 388.053Z" fill="white"/>
</g>
<defs>
<clipPath id="clip0_17_48">
<rect width="200" height="433" fill="white"/>
</clipPath>
</defs>
</svg>
